HIERARCHY
ROOT Hips
{
	OFFSET 0.000000 0.000000 0.000000
	CHANNELS 6 Xposition Yposition Zposition Zrotation Yrotation Xrotation 
	JOINT LowerBack
	{
		OFFSET 0.000000 0.000000 0.000000
		CHANNELS 3 Zrotation Yrotation Xrotation
		JOINT Spine
		{
			OFFSET 0.028270 2.035590 -0.193380
			CHANNELS 3 Zrotation Yrotation Xrotation
			JOINT Spine1
			{
				OFFSET 0.056720 2.048850 -0.042750
				CHANNELS 3 Zrotation Yrotation Xrotation
				JOINT Neck
				{
					OFFSET 0.000000 0.000000 0.000000
					CHANNELS 3 Zrotation Yrotation Xrotation
					JOINT Neck1
					{
						OFFSET -0.054170 1.746240 0.172020
						CHANNELS 3 Zrotation Yrotation Xrotation
						JOINT Head
						{
							OFFSET 0.104070 1.761360 -0.123970
							CHANNELS 3 Zrotation Yrotation Xrotation
							End Site
							{
								OFFSET 0.000000 0.000000 0.000000
							}
						}
					}
				}
				JOINT LeftShoulder
				{
					OFFSET 0.000000 0.000000 0.000000
					CHANNELS 3 Zrotation Yrotation Xrotation
					JOINT LeftArm
					{
						OFFSET 3.362410 1.200890 -0.311210
						CHANNELS 3 Zrotation Yrotation Xrotation
						JOINT LeftForeArm
						{
							OFFSET 4.983000 -0.000000 -0.000000
							CHANNELS 3 Zrotation Yrotation Xrotation
							JOINT LeftHand
							{
								OFFSET 3.483560 -0.000000 -0.000000
								CHANNELS 3 Zrotation Yrotation Xrotation
								JOINT LeftFingerBase
								{
									OFFSET 0.000000 0.000000 0.000000
									CHANNELS 3 Zrotation Yrotation Xrotation
									JOINT LeftHandIndex1
									{
										OFFSET 0.715260 -0.000000 -0.000000
										CHANNELS 3 Zrotation Yrotation Xrotation
										End Site
										{
											OFFSET 0.000000 0.000000 0.000000
										}
									}
								}
								JOINT LThumb
								{
									OFFSET 0.000000 0.000000 0.000000
									CHANNELS 3 Zrotation Yrotation Xrotation
									End Site
									{
										OFFSET 0.000000 0.000000 0.000000
									}
								}
							}
						}
					}
				}
				JOINT RightShoulder
				{
					OFFSET 0.000000 0.000000 0.000000
					CHANNELS 3 Zrotation Yrotation Xrotation
					JOINT RightArm
					{
						OFFSET -3.136600 1.374050 -0.404650
						CHANNELS 3 Zrotation Yrotation Xrotation
						JOINT RightForeArm
						{
							OFFSET -5.241900 -0.000000 -0.000000
							CHANNELS 3 Zrotation Yrotation Xrotation
							JOINT RightHand
							{
								OFFSET -3.444170 -0.000000 -0.000000
								CHANNELS 3 Zrotation Yrotation Xrotation
								JOINT RightFingerBase
								{
									OFFSET 0.000000 0.000000 0.000000
									CHANNELS 3 Zrotation Yrotation Xrotation
									JOINT RightHandIndex1
									{
										OFFSET -0.622530 -0.000000 -0.000000
										CHANNELS 3 Zrotation Yrotation Xrotation
										End Site
										{
											OFFSET 0.000000 0.000000 0.000000
										}
									}
								}
								JOINT RThumb
								{
									OFFSET 0.000000 0.000000 0.000000
									CHANNELS 3 Zrotation Yrotation Xrotation
									End Site
									{
										OFFSET 0.000000 0.000000 0.000000
									}
								}
							}
						}
					}
				}
			}
		}
	}
}
}
MOTION
Frames: 9
Frame Time: 0.008333
5.072532 17.351155 1.403572 -176.042648 -61.550897 -174.208462 5.604553 -6.641930 -5.518569 1.178722 -7.158877 -3.818939 -5.169472 -7.197826 -0.203489 9.793733 -7.487497 0.666330 -1.584895 -0.235941 2.297939 0.000000 0.000000 0.000000 14.421549 -5.773401 4.176667 -29.666696 -34.276775 18.506819 -3.406155 -25.905843 -0.054034 -13.093828 20.115390 -2.327273 -0.100111 -0.091320 0.000000 0.000000 0.000000 0.000000 0.000000 0.000000 0.000000 3.526574 -10.988260 -8.379051 51.285826 65.469313 -18.970217 -175.430450 64.329728 179.718593 -18.048873 13.006103 -2.238355 0.038655 -0.954736 -0.000000 0.000000 0.000000 0.000000 0.000000 0.000000 0.000000 
5.067895 17.345329 1.398540 -176.277828 -61.258217 -174.173499 5.664895 -6.643439 -5.423873 1.194362 -7.162524 -3.811269 -5.199865 -7.208252 -0.176068 9.545799 -7.790629 0.564481 -1.622214 -0.236296 2.272741 0.000000 0.000000 0.000000 12.415215 -5.354164 3.961139 -32.025148 -32.387850 18.673937 -2.974604 -30.751298 -0.049926 -8.354490 19.764072 -1.438884 -0.133373 -0.036691 0.000000 0.000000 0.000000 0.000000 0.000000 0.000000 0.000000 3.204023 -11.108142 -8.130874 49.303637 64.765836 -20.519608 -175.503545 63.774268 179.721905 -18.086206 12.741320 -2.200894 0.052407 -0.950694 0.000000 0.000000 0.000000 0.000000 0.000000 0.000000 0.000000 
5.064050 17.339290 1.391771 -176.528659 -60.950718 -174.096594 5.669977 -6.624867 -5.318962 1.197274 -7.143793 -3.811253 -5.240799 -7.198916 -0.189635 9.348648 -8.007913 0.465117 -1.641701 -0.235748 2.248935 0.000000 0.000000 0.000000 10.305319 -4.867131 3.737147 -33.911931 -30.406925 18.648405 -2.582080 -36.021356 -0.043936 -4.627224 18.338130 -0.723647 -0.146540 0.019684 0.000000 0.000000 0.000000 0.000000 0.000000 0.000000 0.000000 2.835044 -11.126413 -7.862486 47.276718 63.844156 -22.225186 -175.577196 63.111669 179.724131 -18.281811 12.423129 -2.174114 0.072156 -0.945888 -0.000000 0.000000 0.000000 0.000000 0.000000 0.000000 0.000000 
5.060539 17.333282 1.383560 -176.779426 -60.633823 -173.985700 5.629005 -6.584127 -5.213874 1.191361 -7.101576 -3.812629 -5.283593 -7.167916 -0.209428 9.195864 -8.151055 0.344955 -1.640904 -0.233746 2.219493 0.000000 0.000000 0.000000 8.191472 -4.205099 3.531891 -35.488292 -28.611657 18.604128 -2.270971 -41.441933 -0.035741 -2.475976 16.347328 -0.334103 -0.141209 0.068854 0.000000 0.000000 0.000000 0.000000 0.000000 0.000000 0.000000 2.409538 -11.062923 -7.597922 45.302453 62.721361 -24.006289 -175.647104 62.358745 179.725223 -18.633897 12.055158 -2.156522 0.097389 -0.939871 -0.000000 0.000000 0.000000 0.000000 0.000000 0.000000 0.000000 
5.057014 17.327588 1.374285 -177.016890 -60.310158 -173.850004 5.554878 -6.523008 -5.118698 1.181139 -7.038733 -3.810792 -5.319734 -7.116733 -0.209005 9.076308 -8.235192 0.187698 -1.619033 -0.229966 2.179465 0.000000 0.000000 0.000000 6.187689 -3.317065 3.363545 -36.952671 -27.151703 18.627826 -2.048098 -46.785189 -0.024950 -2.016162 14.385630 -0.236990 -0.121206 0.105336 0.000000 0.000000 0.000000 0.000000 0.000000 0.000000 0.000000 1.921292 -10.930807 -7.356163 43.468164 61.431932 -25.783346 -175.709102 61.542626 179.725268 -19.122422 11.645667 -2.145023 0.126948 -0.932335 -0.000000 0.000000 0.000000 0.000000 0.000000 0.000000 0.000000 
5.052961 17.322528 1.364190 -177.230453 -59.982372 -173.694239 5.461713 -6.444651 -5.044140 1.170712 -6.959439 -3.804783 -5.342983 -7.048072 -0.177768 8.976165 -8.277829 -0.009323 -1.578382 -0.224483 2.127923 0.000000 0.000000 0.000000 4.388094 -2.216608 3.232209 -38.479267 -26.039715 18.756850 -1.888640 -51.910901 -0.012500 -2.924887 13.021208 -0.319449 -0.091618 0.126524 0.000000 0.000000 0.000000 0.000000 0.000000 0.000000 0.000000 1.372369 -10.744029 -7.146653 41.834199 60.022081 -27.489410 -175.761045 60.695420 179.724474 -19.712324 11.209870 -2.136222 0.159300 -0.923304 -0.000000 0.000000 0.000000 0.000000 0.000000 0.000000 0.000000 
5.048071 17.318413 1.353544 -177.411539 -59.655446 -173.525735 5.361377 -6.351081 -4.996803 1.163022 -6.866057 -3.796952 -5.348709 -6.963506 -0.121182 8.880814 -8.297715 -0.234756 -1.524354 -0.217777 2.068042 0.000000 0.000000 0.000000 2.859763 -0.972218 3.121767 -40.212612 -25.191283 18.980034 -1.760638 -56.745276 0.000686 -4.748047 12.439277 -0.505104 -0.055900 0.133478 0.000000 0.000000 0.000000 0.000000 0.000000 0.000000 0.000000 0.774751 -10.520556 -6.969340 40.425731 58.544162 -29.080560 -175.803624 59.854270 179.723149 -20.357453 10.764397 -2.126525 0.192700 -0.913075 -0.000000 0.000000 0.000000 0.000000 0.000000 0.000000 0.000000 
5.042126 17.315458 1.342587 -177.554394 -59.338513 -173.349713 5.261610 -6.243032 -4.981185 1.159557 -6.759287 -3.792319 -5.334199 -6.863671 -0.057437 8.777993 -8.309995 -0.466044 -1.464834 -0.210655 2.006296 0.000000 0.000000 0.000000 1.634846 0.306264 3.005393 -42.235460 -24.450661 19.260931 -1.631699 -61.288438 0.013062 -6.938961 12.651660 -0.759264 -0.017663 0.128308 -0.000000 0.000000 0.000000 0.000000 0.000000 0.000000 0.000000 0.150759 -10.280496 -6.816391 39.232720 57.049574 -30.536064 -175.840742 59.053515 179.721659 -21.005522 10.325237 -2.112734 0.225445 -0.902180 -0.000000 0.000000 0.000000 0.000000 0.000000 0.000000 0.000000 
5.035208 17.313663 1.331488 -177.655930 -59.040803 -173.175841 5.162353 -6.120987 -4.992699 1.160371 -6.638729 -3.793001 -5.296331 -6.748544 0.000240 8.660807 -8.334518 -0.687351 -1.407183 -0.203792 1.947247 0.000000 0.000000 0.000000 0.730866 1.546463 2.858581 -44.608381 -23.720184 19.551675 -1.484521 -65.537033 0.023916 -9.134956 13.511330 -1.076522 0.021006 0.113557 -0.000000 0.000000 0.000000 0.000000 0.000000 0.000000 0.000000 -0.472401 -10.051364 -6.681937 38.226481 55.589333 -31.858753 -175.876467 58.322507 179.720312 -21.604208 9.918317 -2.094949 0.255825 -0.891522 -0.000000 0.000000 0.000000 0.000000 0.000000 0.000000 0.000000 
